<mxfile host="app.diagrams.net" agent="Mozilla/5.0 (Windows NT 10.0; Win64; x64; rv:140.0) Gecko/20100101 Firefox/140.0" version="28.0.6" pages="4">
  <diagram name="Page-1" id="FeXp3lwhKvDChLXC00sJ">
    <mxGraphModel dx="703" dy="830" grid="0" gridSize="10" guides="1" tooltips="1" connect="1" arrows="1" fold="1" page="0" pageScale="1" pageWidth="827" pageHeight="1169" math="0" shadow="0">
      <root>
        <mxCell id="0" />
        <mxCell id="1" parent="0" />
        <mxCell id="gt8i8WAIPigKyDKN9nyk-1" value="" style="whiteSpace=wrap;html=1;aspect=fixed;" vertex="1" parent="1">
          <mxGeometry x="32" y="32" width="276" height="276" as="geometry" />
        </mxCell>
        <mxCell id="w7_embxRRbCrGlgy1Q8U-1" value="" style="rounded=1;whiteSpace=wrap;html=1;" vertex="1" parent="1">
          <mxGeometry x="110" y="74" width="120" height="60" as="geometry" />
        </mxCell>
        <mxCell id="-sjNBUB8IZvCzLfl4tqM-1" value="" style="rounded=1;whiteSpace=wrap;html=1;" vertex="1" parent="1">
          <mxGeometry x="49" y="215" width="85" height="60" as="geometry" />
        </mxCell>
        <mxCell id="-sjNBUB8IZvCzLfl4tqM-2" value="" style="rounded=1;whiteSpace=wrap;html=1;" vertex="1" parent="1">
          <mxGeometry x="208" y="215" width="85" height="60" as="geometry" />
        </mxCell>
        <mxCell id="-sjNBUB8IZvCzLfl4tqM-3" value="" style="image;aspect=fixed;perimeter=ellipsePerimeter;html=1;align=center;shadow=0;dashed=0;spacingTop=3;image=img/lib/active_directory/databases.svg;" vertex="1" parent="1">
          <mxGeometry x="79.5" y="219" width="24" height="23.52" as="geometry" />
        </mxCell>
        <mxCell id="-sjNBUB8IZvCzLfl4tqM-4" value="" style="html=1;verticalLabelPosition=bottom;align=center;labelBackgroundColor=#ffffff;verticalAlign=top;strokeWidth=2;strokeColor=#0080F0;shadow=0;dashed=0;shape=mxgraph.ios7.icons.tools;pointerEvents=1" vertex="1" parent="1">
          <mxGeometry x="239.65" y="218.82" width="21.7" height="23.7" as="geometry" />
        </mxCell>
        <mxCell id="-sjNBUB8IZvCzLfl4tqM-5" value="" style="shape=image;html=1;verticalAlign=top;verticalLabelPosition=bottom;labelBackgroundColor=#ffffff;imageAspect=0;aspect=fixed;image=https://icons.diagrams.net/icon-cache1/Boxicons_Regular_Vol_1-2633/bx-brain-800.svg" vertex="1" parent="1">
          <mxGeometry x="158" y="80" width="24" height="24" as="geometry" />
        </mxCell>
        <mxCell id="-sjNBUB8IZvCzLfl4tqM-6" value="&lt;b&gt;Tools&lt;/b&gt;" style="text;html=1;align=center;verticalAlign=middle;whiteSpace=wrap;rounded=0;" vertex="1" parent="1">
          <mxGeometry x="224" y="246" width="53" height="24" as="geometry" />
        </mxCell>
        <mxCell id="-sjNBUB8IZvCzLfl4tqM-7" value="&lt;b&gt;LLM&lt;/b&gt;" style="text;html=1;align=center;verticalAlign=middle;whiteSpace=wrap;rounded=0;" vertex="1" parent="1">
          <mxGeometry x="143.5" y="102" width="53" height="24" as="geometry" />
        </mxCell>
        <mxCell id="-sjNBUB8IZvCzLfl4tqM-8" value="&lt;b&gt;Memory&lt;/b&gt;" style="text;html=1;align=center;verticalAlign=middle;whiteSpace=wrap;rounded=0;" vertex="1" parent="1">
          <mxGeometry x="65" y="246" width="53" height="24" as="geometry" />
        </mxCell>
        <mxCell id="-sjNBUB8IZvCzLfl4tqM-13" value="" style="endArrow=classic;startArrow=classic;html=1;rounded=0;fontSize=12;startSize=8;endSize=8;curved=1;entryX=0.5;entryY=0;entryDx=0;entryDy=0;exitX=0;exitY=0.5;exitDx=0;exitDy=0;" edge="1" parent="1" source="w7_embxRRbCrGlgy1Q8U-1" target="-sjNBUB8IZvCzLfl4tqM-1">
          <mxGeometry width="50" height="50" relative="1" as="geometry">
            <mxPoint x="175" y="225" as="sourcePoint" />
            <mxPoint x="225" y="175" as="targetPoint" />
            <Array as="points">
              <mxPoint x="75" y="114" />
            </Array>
          </mxGeometry>
        </mxCell>
        <mxCell id="-sjNBUB8IZvCzLfl4tqM-14" value="" style="endArrow=classic;startArrow=classic;html=1;rounded=0;fontSize=12;startSize=8;endSize=8;curved=1;exitX=0.293;exitY=-0.077;exitDx=0;exitDy=0;exitPerimeter=0;entryX=1;entryY=0.5;entryDx=0;entryDy=0;" edge="1" parent="1" source="-sjNBUB8IZvCzLfl4tqM-4" target="w7_embxRRbCrGlgy1Q8U-1">
          <mxGeometry width="50" height="50" relative="1" as="geometry">
            <mxPoint x="175" y="225" as="sourcePoint" />
            <mxPoint x="225" y="175" as="targetPoint" />
            <Array as="points">
              <mxPoint x="263" y="111" />
            </Array>
          </mxGeometry>
        </mxCell>
      </root>
    </mxGraphModel>
  </diagram>
  <diagram id="Ddv0bjJEGDfk7h7jrF93" name="Page-2">
    <mxGraphModel dx="402" dy="474" grid="0" gridSize="10" guides="1" tooltips="1" connect="1" arrows="1" fold="1" page="0" pageScale="1" pageWidth="827" pageHeight="1169" math="0" shadow="0">
      <root>
        <mxCell id="0" />
        <mxCell id="1" parent="0" />
        <mxCell id="w3kxhkQSGcvHAjl5hH4f-1" value="" style="whiteSpace=wrap;html=1;aspect=fixed;" vertex="1" parent="1">
          <mxGeometry x="44" y="44" width="270" height="270" as="geometry" />
        </mxCell>
        <mxCell id="_LxnW0N4NbK_T_UUXc8Z-15" value="" style="edgeStyle=none;curved=1;rounded=0;orthogonalLoop=1;jettySize=auto;html=1;fontSize=12;startSize=8;endSize=8;" edge="1" parent="1" source="_LxnW0N4NbK_T_UUXc8Z-2" target="_LxnW0N4NbK_T_UUXc8Z-4">
          <mxGeometry relative="1" as="geometry">
            <Array as="points">
              <mxPoint x="76" y="109" />
            </Array>
          </mxGeometry>
        </mxCell>
        <mxCell id="_LxnW0N4NbK_T_UUXc8Z-16" value="3" style="edgeLabel;html=1;align=center;verticalAlign=middle;resizable=0;points=[];fontSize=12;" vertex="1" connectable="0" parent="_LxnW0N4NbK_T_UUXc8Z-15">
          <mxGeometry x="-0.3554" y="-2" relative="1" as="geometry">
            <mxPoint as="offset" />
          </mxGeometry>
        </mxCell>
        <mxCell id="_LxnW0N4NbK_T_UUXc8Z-2" value="" style="rounded=1;whiteSpace=wrap;html=1;" vertex="1" parent="1">
          <mxGeometry x="72" y="211" width="89" height="60" as="geometry" />
        </mxCell>
        <mxCell id="_LxnW0N4NbK_T_UUXc8Z-5" value="" style="edgeStyle=none;curved=1;rounded=0;orthogonalLoop=1;jettySize=auto;html=1;fontSize=12;startSize=8;endSize=8;" edge="1" parent="1" source="_LxnW0N4NbK_T_UUXc8Z-3" target="_LxnW0N4NbK_T_UUXc8Z-2">
          <mxGeometry relative="1" as="geometry" />
        </mxCell>
        <mxCell id="_LxnW0N4NbK_T_UUXc8Z-7" value="2" style="edgeLabel;html=1;align=center;verticalAlign=middle;resizable=0;points=[];fontSize=12;" vertex="1" connectable="0" parent="_LxnW0N4NbK_T_UUXc8Z-5">
          <mxGeometry x="-0.0299" relative="1" as="geometry">
            <mxPoint as="offset" />
          </mxGeometry>
        </mxCell>
        <mxCell id="_LxnW0N4NbK_T_UUXc8Z-3" value="" style="rounded=1;whiteSpace=wrap;html=1;" vertex="1" parent="1">
          <mxGeometry x="204" y="211" width="89" height="60" as="geometry" />
        </mxCell>
        <mxCell id="_LxnW0N4NbK_T_UUXc8Z-18" value="" style="edgeStyle=none;curved=1;rounded=0;orthogonalLoop=1;jettySize=auto;html=1;fontSize=12;startSize=8;endSize=8;entryX=0.562;entryY=0.012;entryDx=0;entryDy=0;entryPerimeter=0;" edge="1" parent="1">
          <mxGeometry relative="1" as="geometry">
            <mxPoint x="218.29936347412246" y="110.28" as="sourcePoint" />
            <mxPoint x="249.76800000000003" y="211.00000000000003" as="targetPoint" />
            <Array as="points">
              <mxPoint x="284" y="107" />
            </Array>
          </mxGeometry>
        </mxCell>
        <mxCell id="_LxnW0N4NbK_T_UUXc8Z-23" value="1" style="edgeLabel;html=1;align=center;verticalAlign=middle;resizable=0;points=[];fontSize=12;" vertex="1" connectable="0" parent="_LxnW0N4NbK_T_UUXc8Z-18">
          <mxGeometry x="0.316" y="-4" relative="1" as="geometry">
            <mxPoint as="offset" />
          </mxGeometry>
        </mxCell>
        <mxCell id="_LxnW0N4NbK_T_UUXc8Z-4" value="" style="rounded=1;whiteSpace=wrap;html=1;" vertex="1" parent="1">
          <mxGeometry x="134.5" y="82" width="89" height="60" as="geometry" />
        </mxCell>
        <mxCell id="_LxnW0N4NbK_T_UUXc8Z-8" value="" style="shape=mxgraph.signs.healthcare.brain;html=1;pointerEvents=1;fillColor=#000000;strokeColor=none;verticalLabelPosition=bottom;verticalAlign=top;align=center;" vertex="1" parent="1">
          <mxGeometry x="170.5" y="117" width="17" height="17" as="geometry" />
        </mxCell>
        <mxCell id="_LxnW0N4NbK_T_UUXc8Z-9" value="" style="html=1;verticalLabelPosition=bottom;align=center;labelBackgroundColor=#ffffff;verticalAlign=top;strokeWidth=2;strokeColor=#0080F0;shadow=0;dashed=0;shape=mxgraph.ios7.icons.tools;pointerEvents=1" vertex="1" parent="1">
          <mxGeometry x="239.82" y="243" width="17.35" height="17.7" as="geometry" />
        </mxCell>
        <mxCell id="_LxnW0N4NbK_T_UUXc8Z-10" value="" style="html=1;verticalLabelPosition=bottom;align=center;labelBackgroundColor=#ffffff;verticalAlign=top;strokeWidth=2;strokeColor=#0080F0;shadow=0;dashed=0;shape=mxgraph.ios7.icons.eye;" vertex="1" parent="1">
          <mxGeometry x="104" y="247" width="21" height="13.7" as="geometry" />
        </mxCell>
        <mxCell id="_LxnW0N4NbK_T_UUXc8Z-11" value="&lt;b&gt;Observation&lt;/b&gt;" style="text;html=1;align=center;verticalAlign=middle;whiteSpace=wrap;rounded=0;" vertex="1" parent="1">
          <mxGeometry x="94.25" y="220" width="44.5" height="18" as="geometry" />
        </mxCell>
        <mxCell id="_LxnW0N4NbK_T_UUXc8Z-12" value="&lt;b&gt;Action&lt;/b&gt;" style="text;html=1;align=center;verticalAlign=middle;whiteSpace=wrap;rounded=0;" vertex="1" parent="1">
          <mxGeometry x="226.25" y="220" width="44.5" height="18" as="geometry" />
        </mxCell>
        <mxCell id="_LxnW0N4NbK_T_UUXc8Z-14" value="&lt;b&gt;Thought&lt;/b&gt;" style="text;html=1;align=center;verticalAlign=middle;whiteSpace=wrap;rounded=0;" vertex="1" parent="1">
          <mxGeometry x="156.75" y="89" width="44.5" height="18" as="geometry" />
        </mxCell>
      </root>
    </mxGraphModel>
  </diagram>
  <diagram id="IJSynlm1GDXiRw4LqbKS" name="Page-3">
    <mxGraphModel dx="703" dy="1230" grid="0" gridSize="10" guides="1" tooltips="1" connect="1" arrows="1" fold="1" page="0" pageScale="1" pageWidth="827" pageHeight="1169" math="0" shadow="0">
      <root>
        <mxCell id="0" />
        <mxCell id="1" parent="0" />
        <mxCell id="3HxdFAekFyfG3pPEpKNf-1" value="" style="whiteSpace=wrap;html=1;aspect=fixed;" vertex="1" parent="1">
          <mxGeometry x="41" y="-17" width="260" height="260" as="geometry" />
        </mxCell>
        <mxCell id="N0wYLJIh0VkWQOh1PxE9-1" value="" style="rounded=1;whiteSpace=wrap;html=1;" vertex="1" parent="1">
          <mxGeometry x="111" y="9" width="120" height="60" as="geometry" />
        </mxCell>
        <mxCell id="N0wYLJIh0VkWQOh1PxE9-2" value="" style="rounded=1;whiteSpace=wrap;html=1;" vertex="1" parent="1">
          <mxGeometry x="111" y="89" width="120" height="60" as="geometry" />
        </mxCell>
        <mxCell id="N0wYLJIh0VkWQOh1PxE9-3" value="" style="rounded=1;whiteSpace=wrap;html=1;" vertex="1" parent="1">
          <mxGeometry x="111" y="161" width="120" height="60" as="geometry" />
        </mxCell>
        <mxCell id="N0wYLJIh0VkWQOh1PxE9-4" value="" style="image;aspect=fixed;perimeter=ellipsePerimeter;html=1;align=center;shadow=0;dashed=0;spacingTop=3;image=img/lib/active_directory/sql_server.svg;" vertex="1" parent="1">
          <mxGeometry x="196" y="25.04" width="23.5" height="30.52" as="geometry" />
        </mxCell>
        <mxCell id="N0wYLJIh0VkWQOh1PxE9-5" value="" style="shadow=0;dashed=0;html=1;strokeColor=none;fillColor=#4495D1;labelPosition=center;verticalLabelPosition=bottom;verticalAlign=top;align=center;outlineConnect=0;shape=mxgraph.veeam.checked_doc;" vertex="1" parent="1">
          <mxGeometry x="198.5" y="103.75" width="21" height="30.5" as="geometry" />
        </mxCell>
        <mxCell id="N0wYLJIh0VkWQOh1PxE9-6" value="" style="sketch=0;verticalLabelPosition=bottom;sketch=0;aspect=fixed;html=1;verticalAlign=top;strokeColor=none;fillColor=#000000;align=center;outlineConnect=0;pointerEvents=1;shape=mxgraph.citrix2.authentication_google;" vertex="1" parent="1">
          <mxGeometry x="189.75" y="178.25" width="29.75" height="29.75" as="geometry" />
        </mxCell>
        <mxCell id="N0wYLJIh0VkWQOh1PxE9-7" value="&lt;span&gt;Use Tool A&lt;/span&gt;" style="text;html=1;align=center;verticalAlign=middle;whiteSpace=wrap;rounded=0;fontStyle=1" vertex="1" parent="1">
          <mxGeometry x="118" y="25.04" width="67" height="30" as="geometry" />
        </mxCell>
        <mxCell id="N0wYLJIh0VkWQOh1PxE9-8" value="&lt;span&gt;Use Tool B&lt;/span&gt;" style="text;html=1;align=center;verticalAlign=middle;whiteSpace=wrap;rounded=0;fontStyle=1" vertex="1" parent="1">
          <mxGeometry x="118" y="104" width="67" height="30" as="geometry" />
        </mxCell>
        <mxCell id="N0wYLJIh0VkWQOh1PxE9-9" value="&lt;span&gt;Use Tool C&lt;/span&gt;" style="text;html=1;align=center;verticalAlign=middle;whiteSpace=wrap;rounded=0;fontStyle=1" vertex="1" parent="1">
          <mxGeometry x="118" y="176" width="67" height="30" as="geometry" />
        </mxCell>
      </root>
    </mxGraphModel>
  </diagram>
  <diagram id="os9EMAb2T-1o0sMngYkQ" name="Page-5">
    <mxGraphModel dx="1103" dy="1230" grid="0" gridSize="10" guides="1" tooltips="1" connect="1" arrows="1" fold="1" page="0" pageScale="1" pageWidth="827" pageHeight="1169" math="0" shadow="0">
      <root>
        <mxCell id="0" />
        <mxCell id="1" parent="0" />
        <mxCell id="29QbvSolf8fc6ethr1Fn-1" value="" style="rounded=0;whiteSpace=wrap;html=1;" vertex="1" parent="1">
          <mxGeometry x="-25" y="-98" width="377" height="385" as="geometry" />
        </mxCell>
        <mxCell id="29QbvSolf8fc6ethr1Fn-2" value="" style="rounded=1;whiteSpace=wrap;html=1;" vertex="1" parent="1">
          <mxGeometry x="103.5" y="-68" width="120" height="81" as="geometry" />
        </mxCell>
        <mxCell id="29QbvSolf8fc6ethr1Fn-3" value="" style="rounded=1;whiteSpace=wrap;html=1;" vertex="1" parent="1">
          <mxGeometry x="212" y="54" width="120" height="81" as="geometry" />
        </mxCell>
        <mxCell id="29QbvSolf8fc6ethr1Fn-4" value="" style="rounded=1;whiteSpace=wrap;html=1;" vertex="1" parent="1">
          <mxGeometry x="-4" y="54" width="120" height="81" as="geometry" />
        </mxCell>
        <mxCell id="29QbvSolf8fc6ethr1Fn-5" value="" style="rounded=1;whiteSpace=wrap;html=1;" vertex="1" parent="1">
          <mxGeometry x="103.5" y="182" width="120" height="81" as="geometry" />
        </mxCell>
        <mxCell id="29QbvSolf8fc6ethr1Fn-6" value="" style="shape=image;html=1;verticalAlign=top;verticalLabelPosition=bottom;labelBackgroundColor=#ffffff;imageAspect=0;aspect=fixed;image=https://icons.diagrams.net/icon-cache1/Boxicons_Regular_Vol_1-2633/bx-brain-800.svg" vertex="1" parent="1">
          <mxGeometry x="151.5" y="-60" width="24" height="24" as="geometry" />
        </mxCell>
        <mxCell id="29QbvSolf8fc6ethr1Fn-7" value="" style="shape=image;html=1;verticalAlign=top;verticalLabelPosition=bottom;labelBackgroundColor=#ffffff;imageAspect=0;aspect=fixed;image=https://icons.diagrams.net/icon-cache1/Boxicons_Regular_Vol_1-2633/bx-brain-800.svg" vertex="1" parent="1">
          <mxGeometry x="296" y="82.5" width="24" height="24" as="geometry" />
        </mxCell>
        <mxCell id="29QbvSolf8fc6ethr1Fn-8" value="" style="shape=image;html=1;verticalAlign=top;verticalLabelPosition=bottom;labelBackgroundColor=#ffffff;imageAspect=0;aspect=fixed;image=https://icons.diagrams.net/icon-cache1/Boxicons_Regular_Vol_1-2633/bx-brain-800.svg" vertex="1" parent="1">
          <mxGeometry x="151.5" y="232" width="24" height="24" as="geometry" />
        </mxCell>
        <mxCell id="29QbvSolf8fc6ethr1Fn-9" value="" style="shape=image;html=1;verticalAlign=top;verticalLabelPosition=bottom;labelBackgroundColor=#ffffff;imageAspect=0;aspect=fixed;image=https://icons.diagrams.net/icon-cache1/Boxicons_Regular_Vol_1-2633/bx-brain-800.svg" vertex="1" parent="1">
          <mxGeometry x="2" y="82.5" width="24" height="24" as="geometry" />
        </mxCell>
        <mxCell id="29QbvSolf8fc6ethr1Fn-11" value="" style="html=1;labelBackgroundColor=#ffffff;startArrow=none;startFill=0;startSize=6;endArrow=classic;endFill=1;endSize=6;jettySize=auto;orthogonalLoop=1;strokeWidth=1;dashed=1;fontSize=14;rounded=0;curved=1;entryX=0.5;entryY=1;entryDx=0;entryDy=0;exitX=1;exitY=0.5;exitDx=0;exitDy=0;" edge="1" parent="1" source="29QbvSolf8fc6ethr1Fn-5" target="29QbvSolf8fc6ethr1Fn-3">
          <mxGeometry width="60" height="60" relative="1" as="geometry">
            <mxPoint x="170" y="230" as="sourcePoint" />
            <mxPoint x="230" y="170" as="targetPoint" />
          </mxGeometry>
        </mxCell>
        <mxCell id="29QbvSolf8fc6ethr1Fn-12" value="" style="html=1;labelBackgroundColor=#ffffff;startArrow=none;startFill=0;startSize=6;endArrow=classic;endFill=1;endSize=6;jettySize=auto;orthogonalLoop=1;strokeWidth=1;dashed=1;fontSize=14;rounded=0;curved=1;entryX=0.5;entryY=0;entryDx=0;entryDy=0;exitX=1;exitY=0.5;exitDx=0;exitDy=0;" edge="1" parent="1" target="29QbvSolf8fc6ethr1Fn-3">
          <mxGeometry width="60" height="60" relative="1" as="geometry">
            <mxPoint x="223.5" y="-30" as="sourcePoint" />
            <mxPoint x="271.5" y="-118" as="targetPoint" />
          </mxGeometry>
        </mxCell>
        <mxCell id="29QbvSolf8fc6ethr1Fn-13" value="" style="html=1;labelBackgroundColor=#ffffff;startArrow=none;startFill=0;startSize=6;endArrow=classic;endFill=1;endSize=6;jettySize=auto;orthogonalLoop=1;strokeWidth=1;dashed=1;fontSize=14;rounded=0;curved=1;entryX=0.5;entryY=1;entryDx=0;entryDy=0;exitX=1;exitY=0.5;exitDx=0;exitDy=0;" edge="1" parent="1" target="29QbvSolf8fc6ethr1Fn-4">
          <mxGeometry width="60" height="60" relative="1" as="geometry">
            <mxPoint x="103.5" y="235" as="sourcePoint" />
            <mxPoint x="151.5" y="147" as="targetPoint" />
          </mxGeometry>
        </mxCell>
        <mxCell id="29QbvSolf8fc6ethr1Fn-14" value="" style="html=1;labelBackgroundColor=#ffffff;startArrow=none;startFill=0;startSize=6;endArrow=classic;endFill=1;endSize=6;jettySize=auto;orthogonalLoop=1;strokeWidth=1;dashed=1;fontSize=14;rounded=0;curved=1;entryX=0;entryY=0.5;entryDx=0;entryDy=0;exitX=1;exitY=0.5;exitDx=0;exitDy=0;" edge="1" parent="1" target="29QbvSolf8fc6ethr1Fn-2">
          <mxGeometry width="60" height="60" relative="1" as="geometry">
            <mxPoint x="47" y="51" as="sourcePoint" />
            <mxPoint x="95.5" y="135" as="targetPoint" />
            <Array as="points" />
          </mxGeometry>
        </mxCell>
        <mxCell id="29QbvSolf8fc6ethr1Fn-15" value="" style="html=1;labelBackgroundColor=#ffffff;startArrow=none;startFill=0;startSize=6;endArrow=classic;endFill=1;endSize=6;jettySize=auto;orthogonalLoop=1;strokeWidth=1;dashed=1;fontSize=14;rounded=0;curved=1;entryX=0;entryY=0.5;entryDx=0;entryDy=0;" edge="1" parent="1" target="29QbvSolf8fc6ethr1Fn-3">
          <mxGeometry width="60" height="60" relative="1" as="geometry">
            <mxPoint x="115.5" y="97" as="sourcePoint" />
            <mxPoint x="175.5" y="37" as="targetPoint" />
          </mxGeometry>
        </mxCell>
        <mxCell id="29QbvSolf8fc6ethr1Fn-16" value="&lt;b&gt;Agent 2&lt;/b&gt;" style="text;html=1;align=center;verticalAlign=middle;whiteSpace=wrap;rounded=0;" vertex="1" parent="1">
          <mxGeometry x="32" y="79.5" width="60" height="30" as="geometry" />
        </mxCell>
        <mxCell id="29QbvSolf8fc6ethr1Fn-17" value="&lt;b&gt;Agent 4&lt;/b&gt;" style="text;html=1;align=center;verticalAlign=middle;whiteSpace=wrap;rounded=0;" vertex="1" parent="1">
          <mxGeometry x="133.5" y="202" width="60" height="30" as="geometry" />
        </mxCell>
        <mxCell id="29QbvSolf8fc6ethr1Fn-18" value="&lt;b&gt;Agent 3&lt;/b&gt;" style="text;html=1;align=center;verticalAlign=middle;whiteSpace=wrap;rounded=0;" vertex="1" parent="1">
          <mxGeometry x="228" y="79.5" width="60" height="30" as="geometry" />
        </mxCell>
        <mxCell id="29QbvSolf8fc6ethr1Fn-19" value="&lt;b&gt;Agent 1&lt;/b&gt;" style="text;html=1;align=center;verticalAlign=middle;whiteSpace=wrap;rounded=0;" vertex="1" parent="1">
          <mxGeometry x="133.5" y="-32" width="60" height="30" as="geometry" />
        </mxCell>
      </root>
    </mxGraphModel>
  </diagram>
</mxfile>
